<svg width="31" height="33" viewBox="0 0 31 33" fill="none" xmlns="http://www.w3.org/2000/svg">
<path d="M16.4812 17.0823L19.5 15.2615L22.5187 17.1063L21.7281 13.6563L24.3875 11.3563L20.8896 11.0448L19.5 7.78646L18.1104 11.0208L14.6125 11.3323L17.2719 13.6563L16.4812 17.0823ZM13.5823 21.0833L15.1396 14.351L9.91669 9.82292L16.8167 9.22396L19.5 2.875L22.1833 9.22396L29.0833 9.82292L23.8604 14.351L25.4177 21.0833L19.5 17.5135L13.5823 21.0833Z" fill="#FFCC00"/>
<path d="M17.7938 29.6552L19.5 28.626L21.2063 29.6688L20.7594 27.7188L22.2625 26.4188L20.2854 26.2427L19.5 24.401L18.7146 26.2292L16.7375 26.4052L18.2406 27.7188L17.7938 29.6552ZM16.1552 31.9167L17.0354 28.1115L14.0833 25.5521L17.9833 25.2135L19.5 21.625L21.0167 25.2135L24.9167 25.5521L21.9646 28.1115L22.8448 31.9167L19.5 29.899L16.1552 31.9167Z" fill="#FFCC00"/>
<path d="M5.16251 25.3979L7.00001 24.2896L8.83751 25.4125L8.35621 23.3125L9.97501 21.9125L7.84581 21.7229L7.00001 19.7396L6.15421 21.7083L4.02501 21.8979L5.64371 23.3125L5.16251 25.3979ZM3.39791 27.8333L4.34581 23.7354L1.16671 20.9792L5.36671 20.6146L7.00001 16.75L8.63331 20.6146L12.8333 20.9792L9.65421 23.7354L10.6021 27.8333L7.00001 25.6604L3.39791 27.8333Z" fill="#FFCC00"/>
</svg>
