<svg width="31" height="33" viewBox="0 0 31 33" fill="none" xmlns="http://www.w3.org/2000/svg">
<path d="M14.5188 17.0823L11.5 15.2615L8.48126 17.1063L9.27188 13.6563L6.61251 11.3563L10.1104 11.0448L11.5 7.78646L12.8896 11.0208L16.3875 11.3323L13.7281 13.6563L14.5188 17.0823ZM17.4177 21.0833L15.8604 14.351L21.0833 9.82292L14.1833 9.22396L11.5 2.875L8.81668 9.22396L1.91668 9.82292L7.13959 14.351L5.5823 21.0833L11.5 17.5135L17.4177 21.0833Z" fill="#FFCC00"/>
<path d="M13.2062 29.6552L11.5 28.626L9.79374 29.6688L10.2406 27.7188L8.73749 26.4188L10.7146 26.2427L11.5 24.401L12.2854 26.2292L14.2625 26.4052L12.7594 27.7188L13.2062 29.6552ZM14.8448 31.9167L13.9646 28.1115L16.9167 25.5521L13.0167 25.2135L11.5 21.625L9.98332 25.2135L6.08332 25.5521L9.03541 28.1115L8.1552 31.9167L11.5 29.899L14.8448 31.9167Z" fill="#FFCC00"/>
<path d="M25.8375 25.3979L24 24.2896L22.1625 25.4125L22.6438 23.3125L21.025 21.9125L23.1542 21.7229L24 19.7396L24.8458 21.7083L26.975 21.8979L25.3563 23.3125L25.8375 25.3979ZM27.6021 27.8333L26.6542 23.7354L29.8333 20.9792L25.6333 20.6146L24 16.75L22.3667 20.6146L18.1667 20.9792L21.3458 23.7354L20.3979 27.8333L24 25.6604L27.6021 27.8333Z" fill="#FFCC00"/>
</svg>
