<svg width="33" height="33" viewBox="0 0 33 33" fill="none" xmlns="http://www.w3.org/2000/svg">
<path d="M18.4023 17.0823L21.421 15.2615L24.4397 17.1063L23.6491 13.6563L26.3085 11.3563L22.8106 11.0448L21.421 7.78646L20.0315 11.0208L16.5336 11.3323L19.1929 13.6563L18.4023 17.0823ZM15.5034 21.0833L17.0607 14.351L11.8378 9.82292L18.7377 9.22396L21.421 2.875L24.1043 9.22396L31.0042 9.82292L25.7814 14.351L27.3387 21.0833L21.421 17.5135L15.5034 21.0833Z" fill="#FFCC00"/>
<path d="M14.7149 29.6552L16.4211 28.626L18.1273 29.6688L17.6805 27.7188L19.1836 26.4188L17.2065 26.2427L16.4211 24.401L15.6357 26.2292L13.6586 26.4052L15.1618 27.7188L14.7149 29.6552ZM13.0764 31.9167L13.9566 28.1115L11.0045 25.5521L14.9045 25.2135L16.4211 21.625L17.9378 25.2135L21.8377 25.5521L18.8857 28.1115L19.7659 31.9167L16.4211 29.899L13.0764 31.9167Z" fill="#FFCC00"/>
<path d="M5.62334 25.3979L7.46082 24.2896L9.29829 25.4125L8.81705 23.3125L10.4358 21.9125L8.30664 21.7229L7.46082 19.7396L6.61499 21.7083L4.48586 21.8979L6.10459 23.3125L5.62334 25.3979ZM3.85878 27.8333L4.80669 23.7354L1.62756 20.9792L5.82751 20.6146L7.46082 16.75L9.09413 20.6146L13.2941 20.9792L10.1149 23.7354L11.0629 27.8333L7.46082 25.6604L3.85878 27.8333Z" fill="#FFCC00"/>
</svg>
